<svg xmlns="http://www.w3.org/2000/svg" width="28" height="28" fill="none" viewBox="0 0 28 28"><path fill="currentColor" d="M19.8334 12.8333H10.9784L14.8284 8.99501C15.0481 8.77533 15.1715 8.47736 15.1715 8.16668C15.1715 7.85599 15.0481 7.55803 14.8284 7.33835C14.6087 7.11866 14.3107 6.99524 14 6.99524C13.6894 6.99524 13.3914 7.11866 13.1717 7.33835L7.33838 13.1717C7.23216 13.2826 7.1489 13.4135 7.09338 13.5567C6.97669 13.8407 6.97669 14.1593 7.09338 14.4433C7.1489 14.5866 7.23216 14.7174 7.33838 14.8283L13.1717 20.6617C13.2802 20.771 13.4092 20.8578 13.5514 20.9171C13.6935 20.9763 13.846 21.0068 14 21.0068C14.1541 21.0068 14.3065 20.9763 14.4487 20.9171C14.5909 20.8578 14.7199 20.771 14.8284 20.6617C14.9377 20.5532 15.0245 20.4242 15.0837 20.282C15.143 20.1398 15.1735 19.9874 15.1735 19.8333C15.1735 19.6793 15.143 19.5268 15.0837 19.3847C15.0245 19.2425 14.9377 19.1135 14.8284 19.005L10.9784 15.1667H19.8334C20.1428 15.1667 20.4395 15.0438 20.6583 14.825C20.8771 14.6062 21 14.3094 21 14C21 13.6906 20.8771 13.3938 20.6583 13.1751C20.4395 12.9563 20.1428 12.8333 19.8334 12.8333Z"/></svg>