<svg xmlns="http://www.w3.org/2000/svg" viewBox="0 0 21 16"><path d="M17.7913 5.50001H17.458L16.1559 2.38001C15.9234 1.82527 15.5234 1.3499 15.0075 1.01492C14.4915 0.679935 13.883 0.500629 13.2601 0.500012H7.01009C6.28643 0.498024 5.58449 0.737203 5.02407 1.17673C4.46365 1.61625 4.07949 2.22886 3.93717 2.91001L3.39551 5.50001H3.20801C2.37921 5.50001 1.58435 5.81608 0.998299 6.37869C0.412248 6.9413 0.0830078 7.70436 0.0830078 8.50001V11.5C0.0830078 11.7652 0.192754 12.0196 0.388105 12.2071C0.583455 12.3947 0.848407 12.5 1.12467 12.5H2.16634C2.16634 13.2957 2.49558 14.0587 3.08163 14.6213C3.66768 15.1839 4.46254 15.5 5.29134 15.5C6.12014 15.5 6.915 15.1839 7.50105 14.6213C8.0871 14.0587 8.41634 13.2957 8.41634 12.5H12.583C12.583 13.2957 12.9122 14.0587 13.4983 14.6213C14.0844 15.1839 14.8792 15.5 15.708 15.5C16.5368 15.5 17.3317 15.1839 17.9177 14.6213C18.5038 14.0587 18.833 13.2957 18.833 12.5H19.8747C20.1509 12.5 20.4159 12.3947 20.6112 12.2071C20.8066 12.0196 20.9163 11.7652 20.9163 11.5V8.50001C20.9163 7.70436 20.5871 6.9413 20.0011 6.37869C19.415 5.81608 18.6201 5.50001 17.7913 5.50001ZM11.5413 2.50001H13.2601C13.4669 2.50181 13.6685 2.56269 13.8392 2.67488C14.0099 2.78708 14.1419 2.94552 14.2184 3.13001L15.208 5.50001H11.5413V2.50001ZM5.97884 3.30001C6.02754 3.07074 6.15845 2.86511 6.34878 2.71894C6.53911 2.57277 6.77681 2.49529 7.02051 2.50001H9.45801V5.50001H5.52051L5.97884 3.30001ZM5.29134 13.5C5.08532 13.5 4.88392 13.4414 4.71262 13.3315C4.54132 13.2216 4.40781 13.0654 4.32897 12.8827C4.25013 12.7 4.2295 12.4989 4.26969 12.3049C4.30988 12.1109 4.40909 11.9328 4.55477 11.7929C4.70045 11.6531 4.88606 11.5578 5.08812 11.5192C5.29019 11.4806 5.49963 11.5004 5.68997 11.5761C5.88031 11.6518 6.043 11.78 6.15746 11.9444C6.27192 12.1089 6.33301 12.3022 6.33301 12.5C6.33301 12.7652 6.22326 13.0196 6.02791 13.2071C5.83256 13.3947 5.56761 13.5 5.29134 13.5ZM15.708 13.5C15.502 13.5 15.3006 13.4414 15.1293 13.3315C14.958 13.2216 14.8245 13.0654 14.7456 12.8827C14.6668 12.7 14.6462 12.4989 14.6864 12.3049C14.7266 12.1109 14.8258 11.9328 14.9714 11.7929C15.1171 11.6531 15.3027 11.5578 15.5048 11.5192C15.7069 11.4806 15.9163 11.5004 16.1066 11.5761C16.297 11.6518 16.4597 11.78 16.5741 11.9444C16.6886 12.1089 16.7497 12.3022 16.7497 12.5C16.7497 12.7652 16.6399 13.0196 16.4446 13.2071C16.2492 13.3947 15.9843 13.5 15.708 13.5ZM18.833 10.5H18.0205C17.7276 10.1907 17.3706 9.94348 16.9724 9.77434C16.5741 9.6052 16.1435 9.51783 15.708 9.51783C15.2725 9.51783 14.8419 9.6052 14.4437 9.77434C14.0454 9.94348 13.6884 10.1907 13.3955 10.5H7.60384C7.31094 10.1907 6.95393 9.94348 6.5557 9.77434C6.15747 9.6052 5.72681 9.51783 5.29134 9.51783C4.85588 9.51783 4.42522 9.6052 4.02698 9.77434C3.62875 9.94348 3.27174 10.1907 2.97884 10.5H2.16634V8.50001C2.16634 8.2348 2.27609 7.98044 2.47144 7.79291C2.66679 7.60537 2.93174 7.50001 3.20801 7.50001H17.7913C18.0676 7.50001 18.3326 7.60537 18.5279 7.79291C18.7233 7.98044 18.833 8.2348 18.833 8.50001V10.5Z"/></svg>