<svg viewBox="0 0 24 24" xmlns="http://www.w3.org/2000/svg">
<path d="M21.8333 7.91924L14.8334 1.87747C14.1917 1.3124 13.361 1 12.5 1C11.6391 1 10.8084 1.3124 10.1667 1.87747L3.16677 7.91924C2.7962 8.24554 2.50049 8.64581 2.29933 9.09342C2.09816 9.54102 1.99616 10.0257 2.00011 10.5151V20.5541C2.00011 21.468 2.36886 22.3445 3.02523 22.9907C3.6816 23.637 4.57183 24 5.50009 24H19.5C20.4282 24 21.3185 23.637 21.9748 22.9907C22.6312 22.3445 23 21.468 23 20.5541V10.5036C23.0023 10.0161 22.8995 9.53368 22.6983 9.08818C22.4972 8.64267 22.2024 8.24425 21.8333 7.91924ZM14.8334 21.7027H10.1667V15.9596C10.1667 15.655 10.2896 15.3628 10.5084 15.1474C10.7272 14.932 11.024 14.811 11.3334 14.811H13.6667C13.9761 14.811 14.2729 14.932 14.4916 15.1474C14.7104 15.3628 14.8334 15.655 14.8334 15.9596V21.7027ZM20.6666 20.5541C20.6666 20.8588 20.5437 21.1509 20.3249 21.3663C20.1061 21.5817 19.8094 21.7027 19.5 21.7027H17.1667V15.9596C17.1667 15.0457 16.7979 14.1692 16.1416 13.523C15.4852 12.8768 14.5949 12.5137 13.6667 12.5137H11.3334C10.4051 12.5137 9.51489 12.8768 8.85852 13.523C8.20215 14.1692 7.8334 15.0457 7.8334 15.9596V21.7027H5.50009C5.19067 21.7027 4.89392 21.5817 4.67513 21.3663C4.45634 21.1509 4.33343 20.8588 4.33343 20.5541V10.5036C4.33364 10.3406 4.36912 10.1794 4.43751 10.0309C4.50591 9.88231 4.60565 9.74982 4.73009 9.64218L11.73 3.6119C11.9429 3.42775 12.2166 3.32619 12.5 3.32619C12.7834 3.32619 13.0571 3.42775 13.27 3.6119L20.27 9.64218C20.3944 9.74982 20.4942 9.88231 20.5626 10.0309C20.631 10.1794 20.6664 10.3406 20.6666 10.5036V20.5541Z"/>
</svg>
