<svg width="40" height="40" viewBox="0 0 40 40" fill="none" xmlns="http://www.w3.org/2000/svg">
<mask id="mask0_105_401" style="mask-type:luminance" maskUnits="userSpaceOnUse" x="0" y="0" width="40" height="40">
<path d="M40 0H0V40H40V0Z" fill="white"/>
</mask>
<g mask="url(#mask0_105_401)">
<mask id="mask1_105_401" style="mask-type:luminance" maskUnits="userSpaceOnUse" x="3" y="18" width="34" height="10">
<path d="M9.11035 18.2219H5.11035C4.00578 18.2219 3.11035 19.1174 3.11035 20.2219V25.9997C3.11035 27.1043 4.00578 27.9997 5.11035 27.9997H9.11035C10.2149 27.9997 11.1104 27.1043 11.1104 25.9997V20.2219C11.1104 19.1174 10.2149 18.2219 9.11035 18.2219Z" fill="white"/>
<path d="M34.8877 18.2219H30.8877C29.7831 18.2219 28.8877 19.1174 28.8877 20.2219V25.9997C28.8877 27.1043 29.7831 27.9997 30.8877 27.9997H34.8877C35.9923 27.9997 36.8877 27.1043 36.8877 25.9997V20.2219C36.8877 19.1174 35.9923 18.2219 34.8877 18.2219Z" fill="white"/>
</mask>
<g mask="url(#mask1_105_401)">
<path d="M0 14.6665H40V31.5554H0V14.6665Z" fill="#2C2638"/>
<path d="M0 14.6665H40V31.5554H0V14.6665Z" fill="white" fill-opacity="0.3"/>
<path d="M0 23.1111H40V31.5555H0V23.1111Z" fill="black" fill-opacity="0.1"/>
</g>
<mask id="mask2_105_401" style="mask-type:luminance" maskUnits="userSpaceOnUse" x="17" y="0" width="9" height="12">
<path fill-rule="evenodd" clip-rule="evenodd" d="M18.8453 0.0241699C18.0116 0.857539 17.5432 1.98795 17.543 3.16672C17.5428 4.34549 18.0108 5.47606 18.8442 6.30973C19.6776 7.14339 20.808 7.61185 21.9867 7.61206C23.1655 7.61227 24.2961 7.14421 25.1298 6.31084" fill="white"/>
<path d="M23.4008 1.75268C23.7479 2.09982 24.3107 2.09982 24.6578 1.75268C25.005 1.40555 25.005 0.842737 24.6578 0.495604C24.3107 0.148471 23.7479 0.148472 23.4008 0.495605C23.0536 0.842737 23.0536 1.40555 23.4008 1.75268Z" fill="white"/>
<path d="M23.4023 1.44116L23.7166 1.75543L19.6311 5.84094L19.3168 5.52667L23.4023 1.44116Z" fill="white"/>
<path d="M19.7646 6.24622H20.6535V11.5795H19.7646V6.24622Z" fill="white"/>
</mask>
<g mask="url(#mask2_105_401)">
<path d="M9.11133 -0.000244141H31.3336V11.5553H9.11133V-0.000244141Z" fill="#90A4AE"/>
<path d="M9.11133 -0.000244141H31.3336V11.5553H9.11133V-0.000244141Z" fill="white" fill-opacity="0.3"/>
<path fill-rule="evenodd" clip-rule="evenodd" d="M18.8453 0.024292C18.0116 0.857661 17.5432 1.98807 17.543 3.16684C17.5428 4.34561 18.0108 5.47618 18.8442 6.30985C19.6776 7.14351 20.808 7.61198 21.9867 7.61218C23.1655 7.61239 24.2961 7.14433 25.1298 6.31096" fill="white" fill-opacity="0.2"/>
<path d="M23.1389 2.53521C23.6301 3.02641 24.4265 3.02641 24.9177 2.53522C25.4089 2.04402 25.4089 1.24764 24.9177 0.756448C24.4265 0.265255 23.6301 0.265256 23.1389 0.756449C22.6477 1.24764 22.6477 2.04402 23.1389 2.53521Z" fill="white" fill-opacity="0.8"/>
</g>
<mask id="mask3_105_401" style="mask-type:luminance" maskUnits="userSpaceOnUse" x="5" y="9" width="30" height="28">
<path fill-rule="evenodd" clip-rule="evenodd" d="M5.55469 32.4444V25.0777C5.55473 24.0702 5.72606 23.07 6.06135 22.1199L9.9458 12.4444C10.2216 11.6642 10.7327 10.9887 11.4085 10.5111C12.0843 10.0335 12.8916 9.77728 13.7191 9.77771H26.2791C27.1067 9.77728 27.914 10.0335 28.5898 10.5111C29.2656 10.9887 29.7766 11.6642 30.0525 12.4444L33.9369 22.1199C34.2722 23.07 34.4435 24.0702 34.4436 25.0777V32.4444C34.4436 33.5052 34.0222 34.5227 33.272 35.2728C32.5219 36.0229 31.5044 36.4444 30.4436 36.4444H9.55469C8.49382 36.4444 7.47641 36.0229 6.72626 35.2728C5.97611 34.5227 5.55469 33.5052 5.55469 32.4444Z" fill="white"/>
</mask>
<g mask="url(#mask3_105_401)">
<path d="M5.11035 9.33325H34.8881V36.8888H5.11035V9.33325Z" fill="#2C2638"/>
</g>
<path d="M18.6662 29.7778H18.2218C17.9763 29.7778 17.7773 29.9768 17.7773 30.2223V32.4445C17.7773 32.69 17.9763 32.8889 18.2218 32.8889H18.6662C18.9117 32.8889 19.1107 32.69 19.1107 32.4445V30.2223C19.1107 29.9768 18.9117 29.7778 18.6662 29.7778Z" fill="black" fill-opacity="0.6"/>
<path d="M15.5549 29.7777H15.1105C14.865 29.7777 14.666 29.9767 14.666 30.2222V32.4444C14.666 32.6898 14.865 32.8888 15.1105 32.8888H15.5549C15.8004 32.8888 15.9993 32.6898 15.9993 32.4444V30.2222C15.9993 29.9767 15.8004 29.7777 15.5549 29.7777Z" fill="black" fill-opacity="0.6"/>
<path d="M21.7766 29.7778H21.3321C21.0867 29.7778 20.8877 29.9768 20.8877 30.2223V32.4445C20.8877 32.69 21.0867 32.8889 21.3321 32.8889H21.7766C22.022 32.8889 22.221 32.69 22.221 32.4445V30.2223C22.221 29.9768 22.022 29.7778 21.7766 29.7778Z" fill="black" fill-opacity="0.6"/>
<path d="M24.8869 29.7778H24.4425C24.197 29.7778 23.998 29.9768 23.998 30.2223V32.4445C23.998 32.69 24.197 32.8889 24.4425 32.8889H24.8869C25.1324 32.8889 25.3314 32.69 25.3314 32.4445V30.2223C25.3314 29.9768 25.1324 29.7778 24.8869 29.7778Z" fill="black" fill-opacity="0.6"/>
<path d="M28.8883 19.1111H11.1106C10.6196 19.1111 10.2217 19.5091 10.2217 20V26.2222C10.2217 26.7131 10.6196 27.1111 11.1106 27.1111H28.8883C29.3793 27.1111 29.7772 26.7131 29.7772 26.2222V20C29.7772 19.5091 29.3793 19.1111 28.8883 19.1111Z" fill="black" fill-opacity="0.8"/>
<path d="M16.4448 21.5554H15.1114C14.866 21.5554 14.667 21.7544 14.667 21.9999V24.8888C14.667 25.1342 14.866 25.3332 15.1114 25.3332H16.4448C16.6902 25.3332 16.8892 25.1342 16.8892 24.8888V21.9999C16.8892 21.7544 16.6902 21.5554 16.4448 21.5554Z" fill="#5EF2B8"/>
<path d="M24.8881 21.5554H23.5548C23.3093 21.5554 23.1104 21.7544 23.1104 21.9999V24.8888C23.1104 25.1342 23.3093 25.3332 23.5548 25.3332H24.8881C25.1336 25.3332 25.3326 25.1342 25.3326 24.8888V21.9999C25.3326 21.7544 25.1336 21.5554 24.8881 21.5554Z" fill="#5EF2B8"/>
<path fill-rule="evenodd" clip-rule="evenodd" d="M26.8893 19.1111H28.0004L25.3338 27.1111H24.2227L26.8893 19.1111Z" fill="white" fill-opacity="0.4"/>
</g>
</svg>
