<svg xmlns="http://www.w3.org/2000/svg" width="50" height="50" fill="none" viewBox="0 0 50 50"><mask id="mask0_155_240" style="mask-type:luminance" width="50" height="50" x="0" y="0" maskUnits="userSpaceOnUse"><path fill="#fff" d="M50 0H0V50H50V0Z"/></mask><g mask="url(#mask0_155_240)"><mask id="mask1_155_240" style="mask-type:luminance" width="47" height="12" x="2" y="22" maskUnits="userSpaceOnUse"><path fill="#fff" d="M10.4897 22.7854H5.07208C3.57605 22.7854 2.36328 23.7736 2.36328 24.9926V31.3688C2.36328 32.5878 3.57605 33.5759 5.07208 33.5759H10.4897C11.9857 33.5759 13.1985 32.5878 13.1985 31.3688V24.9926C13.1985 23.7736 11.9857 22.7854 10.4897 22.7854Z"/><path fill="#fff" d="M45.4028 22.7854H39.9852C38.4891 22.7854 37.2764 23.7736 37.2764 24.9926V31.3688C37.2764 32.5878 38.4891 33.5759 39.9852 33.5759H45.4028C46.8988 33.5759 48.1116 32.5878 48.1116 31.3688V24.9926C48.1116 23.7736 46.8988 22.7854 45.4028 22.7854Z"/></mask><g mask="url(#mask1_155_240)"><path fill="#fff" d="M-1.84961 18.8616H52.3264V37.4998H-1.84961V18.8616Z"/><path fill="#fff" fill-opacity=".3" d="M-4.57617 18.8616H49.5998V37.4998H-4.57617V18.8616Z"/><path fill="#000" fill-opacity=".1" d="M-1.84961 28.1807H52.3264V37.4998H-1.84961V28.1807Z"/></g><mask id="mask2_155_240" style="mask-type:luminance" width="10" height="15" x="22" y="0" maskUnits="userSpaceOnUse"><path fill="#fff" fill-rule="evenodd" d="M23.8008 0.0305176C22.7587 1.07223 22.1731 2.48524 22.1729 3.9587C22.1726 5.43217 22.7577 6.84538 23.7994 7.88746C24.8411 8.92954 26.2541 9.51512 27.7276 9.51538C29.201 9.51564 30.6142 8.93056 31.6563 7.88885" clip-rule="evenodd"/><path fill="#fff" d="M29.4956 2.19125C29.9295 2.62517 30.633 2.62517 31.0669 2.19125C31.5008 1.75733 31.5008 1.05382 31.0669 0.619902C30.633 0.185986 29.9295 0.185987 29.4956 0.619903C29.0617 1.05382 29.0617 1.75733 29.4956 2.19125Z"/><path fill="#fff" d="M29.4971 1.80176L29.8899 2.19459L24.783 7.30148L24.3902 6.90864L29.4971 1.80176Z"/><path fill="#fff" d="M24.9512 7.80835H26.0623V14.475H24.9512V7.80835Z"/></mask><g mask="url(#mask2_155_240)"><path fill="#90A4AE" d="M11.6338 -0.000244141H39.4116V14.4442H11.6338V-0.000244141Z"/><path fill="#fff" fill-opacity=".3" d="M11.6338 -0.000244141H39.4116V14.4442H11.6338V-0.000244141Z"/><path fill="#fff" fill-opacity=".2" fill-rule="evenodd" d="M23.8008 0.0305176C22.7587 1.07223 22.1731 2.48524 22.1729 3.9587C22.1726 5.43217 22.7577 6.84538 23.7994 7.88746C24.8411 8.92954 26.2541 9.51512 27.7276 9.51538C29.201 9.51564 30.6142 8.93056 31.6563 7.88885" clip-rule="evenodd"/><path fill="#fff" fill-opacity=".8" d="M29.1676 3.16917C29.7816 3.78316 30.777 3.78316 31.391 3.16917C32.005 2.55518 32.005 1.5597 31.391 0.945713C30.777 0.331722 29.7816 0.331722 29.1676 0.945713C28.5536 1.5597 28.5536 2.55518 29.1676 3.16917Z"/></g><mask id="mask3_155_240" style="mask-type:luminance" width="37" height="34" x="7" y="12" maskUnits="userSpaceOnUse"><path fill="#fff" fill-rule="evenodd" d="M7.19043 40.5555V31.3472C7.19048 30.0878 7.40465 28.8376 7.82376 27.6499L12.6793 15.5555C13.0241 14.5802 13.6629 13.7359 14.5077 13.1389C15.3524 12.5419 16.3616 12.2216 17.396 12.2222H33.096C34.1304 12.2216 35.1395 12.5419 35.9843 13.1389C36.829 13.7359 37.4678 14.5802 37.8126 15.5555L42.6682 27.6499C43.0873 28.8376 43.3015 30.0878 43.3015 31.3472V40.5555C43.3015 41.8816 42.7748 43.1534 41.8371 44.091C40.8994 45.0287 39.6276 45.5555 38.3015 45.5555H12.1904C10.8643 45.5555 9.59258 45.0287 8.6549 44.091C7.71721 43.1534 7.19043 41.8816 7.19043 40.5555Z" clip-rule="evenodd"/></mask><g mask="url(#mask3_155_240)"><path fill="#fff" d="M6.63477 11.6665H43.857V46.1109H6.63477V11.6665Z"/></g><path fill="#000" fill-opacity=".6" d="M23.5808 37.2222H23.0253C22.7185 37.2222 22.4697 37.4709 22.4697 37.7777V40.5555C22.4697 40.8623 22.7185 41.1111 23.0253 41.1111H23.5808C23.8877 41.1111 24.1364 40.8623 24.1364 40.5555V37.7777C24.1364 37.4709 23.8877 37.2222 23.5808 37.2222Z"/><path fill="#000" fill-opacity=".6" d="M19.6912 37.2222H19.1356C18.8288 37.2222 18.5801 37.4709 18.5801 37.7777V40.5555C18.5801 40.8623 18.8288 41.1111 19.1356 41.1111H19.6912C19.998 41.1111 20.2467 40.8623 20.2467 40.5555V37.7777C20.2467 37.4709 19.998 37.2222 19.6912 37.2222Z"/><path fill="#000" fill-opacity=".6" d="M27.4685 37.2222H26.913C26.6062 37.2222 26.3574 37.4709 26.3574 37.7777V40.5555C26.3574 40.8623 26.6062 41.1111 26.913 41.1111H27.4685C27.7754 41.1111 28.0241 40.8623 28.0241 40.5555V37.7777C28.0241 37.4709 27.7754 37.2222 27.4685 37.2222Z"/><path fill="#000" fill-opacity=".6" d="M31.3572 37.2222H30.8016C30.4948 37.2222 30.2461 37.4709 30.2461 37.7777V40.5555C30.2461 40.8623 30.4948 41.1111 30.8016 41.1111H31.3572C31.664 41.1111 31.9128 40.8623 31.9128 40.5555V37.7777C31.9128 37.4709 31.664 37.2222 31.3572 37.2222Z"/><path fill="#000" fill-opacity=".8" d="M36.3568 23.8889H14.1345C13.5209 23.8889 13.0234 24.3864 13.0234 25V32.7778C13.0234 33.3915 13.5209 33.8889 14.1345 33.8889H36.3568C36.9704 33.8889 37.4679 33.3915 37.4679 32.7778V25C37.4679 24.3864 36.9704 23.8889 36.3568 23.8889Z"/><path fill="#5EF2B8" d="M20.8013 26.9446H19.1347C18.8278 26.9446 18.5791 27.1933 18.5791 27.5001V31.1112C18.5791 31.4181 18.8278 31.6668 19.1347 31.6668H20.8013C21.1081 31.6668 21.3569 31.4181 21.3569 31.1112V27.5001C21.3569 27.1933 21.1081 26.9446 20.8013 26.9446Z"/><path fill="#5EF2B8" d="M31.356 26.9446H29.6893C29.3825 26.9446 29.1338 27.1933 29.1338 27.5001V31.1112C29.1338 31.4181 29.3825 31.6668 29.6893 31.6668H31.356C31.6628 31.6668 31.9116 31.4181 31.9116 31.1112V27.5001C31.9116 27.1933 31.6628 26.9446 31.356 26.9446Z"/><path fill="#fff" fill-opacity=".4" fill-rule="evenodd" d="M33.8568 23.8889H35.2457L31.9123 33.8889H30.5234L33.8568 23.8889Z" clip-rule="evenodd"/></g></svg>